HIERARCHY
ROOT Hips
{
 OFFSET 0.000000 0.000000 0.000000
 CHANNELS 6 Xposition Yposition Zposition Yrotation Xrotation Zrotation
 JOINT Chest
 {
  OFFSET 0.000000 9.910571 -0.011835
  CHANNELS 3 Yrotation Xrotation Zrotation
  JOINT Chest2
  {
   OFFSET 0.000000 10.789473 0.021497
   CHANNELS 3 Yrotation Xrotation Zrotation
   JOINT Chest3
   {
    OFFSET 0.000000 9.748205 0.000000
    CHANNELS 3 Yrotation Xrotation Zrotation
    JOINT Chest4
    {
     OFFSET 0.000000 9.748205 0.000000
     CHANNELS 3 Yrotation Xrotation Zrotation
     JOINT Neck
     {
      OFFSET 0.000000 13.998479 0.000000
      CHANNELS 3 Yrotation Xrotation Zrotation
      JOINT Head
      {
       OFFSET 0.000000 9.082285 0.051121
       CHANNELS 3 Yrotation Xrotation Zrotation
       End Site
       {
        OFFSET 0.000000 17.246134 0.026702
       }
      }
     }
     JOINT RightCollar
     {
      OFFSET -3.284495 7.824262 0.000000
      CHANNELS 3 Yrotation Xrotation Zrotation
      JOINT RightShoulder
      {
       OFFSET -15.534540 0.000000 0.000000
       CHANNELS 3 Yrotation Xrotation Zrotation
       JOINT RightElbow
       {
        OFFSET 0.000000 -28.251216 0.000000
        CHANNELS 3 Yrotation Xrotation Zrotation
        JOINT RightWrist
        {
         OFFSET 0.000000 -23.418114 0.012537
         CHANNELS 3 Yrotation Xrotation Zrotation
         End Site
         {
          OFFSET 0.000000 -17.723959 0.000000
         }
        }
       }
      }
     }
     JOINT LeftCollar
     {
      OFFSET 3.284495 7.824262 0.000000
      CHANNELS 3 Yrotation Xrotation Zrotation
      JOINT LeftShoulder
      {
       OFFSET 15.534540 0.000000 0.000000
       CHANNELS 3 Yrotation Xrotation Zrotation
       JOINT LeftElbow
       {
        OFFSET 0.000000 -28.251216 0.000000
        CHANNELS 3 Yrotation Xrotation Zrotation
        JOINT LeftWrist
        {
         OFFSET 0.000000 -23.418114 0.012537
         CHANNELS 3 Yrotation Xrotation Zrotation
         End Site
         {
          OFFSET 0.000000 -17.723959 0.000000
         }
        }
       }
      }
     }
    }
   }
  }
 }
 JOINT RightHip
 {
  OFFSET -8.142657 0.057990 0.005917
  CHANNELS 3 Yrotation Xrotation Zrotation
  JOINT RightKnee
  {
   OFFSET 0.000000 -49.716894 0.008478
   CHANNELS 3 Yrotation Xrotation Zrotation
   JOINT RightAnkle
   {
    OFFSET 0.000000 -43.994153 0.004166
    CHANNELS 3 Yrotation Xrotation Zrotation
    JOINT RightToe
    {
     OFFSET 0.000000 -7.619154 17.822051
     CHANNELS 3 Yrotation Xrotation Zrotation
     End Site
     {
      OFFSET 0.000000 -1.595627 7.159905
     }
    }
   }
  }
 }
 JOINT LeftHip
 {
  OFFSET 8.142657 0.057990 0.005917
  CHANNELS 3 Yrotation Xrotation Zrotation
  JOINT LeftKnee
  {
   OFFSET 0.000000 -49.716894 0.008478
   CHANNELS 3 Yrotation Xrotation Zrotation
   JOINT LeftAnkle
   {
    OFFSET 0.000000 -43.994153 0.004166
    CHANNELS 3 Yrotation Xrotation Zrotation
    JOINT LeftToe
    {
     OFFSET 0.000000 -7.619154 17.822051
     CHANNELS 3 Yrotation Xrotation Zrotation
     End Site
     {
      OFFSET 0.000000 -1.595627 7.159905
     }
    }
   }
  }
 }
}
MOTION
Frames: 10
Frame Time: 0.008333
247.814223 57.418911 255.346902 -52.238731 -53.050571 0.938500 -3.446791 22.379579 -2.613360 -1.417400 9.955493 -1.349598 -1.417400 9.955493 -1.349598 -1.038181 7.469828 -0.986343 -8.911667 16.428561 -2.413733 -15.683807 -5.488405 -1.320910 -0.130539 9.644035 12.258539 30.319068 -22.544239 -23.812145 8.449217 -37.849648 6.972304 26.880679 -8.669375 -19.975999 -0.848647 9.968425 -11.452913 -17.559954 -22.589677 21.701832 -0.406345 -56.958535 19.233633 -44.308429 -24.968339 -16.343259 -16.210550 -22.404047 -5.223726 -10.963951 34.367283 -14.849896 5.206743 29.270662 6.411422 -0.644853 1.164153 -0.276932 19.174556 -30.558748 2.659404 89.383347 88.933641 85.112909 -29.541633 -6.439167 -21.541418 -0.131299 -0.163262 -0.057064
247.809519 57.425625 255.344128 -52.236299 -53.052196 0.915839 -3.435141 22.384295 -2.589393 -1.416012 9.956017 -1.349465 -1.416012 9.956017 -1.349465 -1.037143 7.470218 -0.986265 -8.913266 16.428288 -2.416489 -15.685809 -5.489099 -1.325421 -0.141503 9.638072 12.258505 30.327768 -22.544233 -23.810744 8.438222 -37.843224 6.980310 26.884867 -8.674640 -19.979849 -0.870793 9.961884 -11.450819 -17.546137 -22.592159 21.706929 -0.439562 -56.953117 19.208243 -44.321167 -24.937107 -16.310509 -16.217225 -22.397347 -5.201023 -10.967623 34.372130 -14.849084 5.193705 29.235873 6.400574 -0.647792 1.195269 -0.276771 19.156256 -30.562892 2.688594 89.488834 88.938706 85.218739 -29.539003 -6.442500 -21.542418 -0.132193 -0.163951 -0.057900
247.806924 57.431119 255.341781 -52.242455 -53.045526 0.905899 -3.424255 22.382731 -2.570557 -1.416099 9.957482 -1.349418 -1.416099 9.957482 -1.349418 -1.037205 7.471316 -0.986225 -8.911352 16.427408 -2.417532 -15.681939 -5.490978 -1.327919 -0.146300 9.629680 12.255329 30.329350 -22.551189 -23.813730 8.429155 -37.839024 6.998747 26.886898 -8.678112 -19.980860 -0.878207 9.951740 -11.452674 -17.540953 -22.595950 21.709807 -0.381431 -56.889554 19.138670 -44.372498 -24.977048 -16.250305 -16.217749 -22.399867 -5.182974 -10.968191 34.370195 -14.849080 5.213258 29.217737 6.415616 -0.661074 1.214326 -0.282169 19.153620 -30.572601 2.703424 89.431196 88.944349 85.166510 -29.534952 -6.443062 -21.545520 -0.134092 -0.165096 -0.058158
247.805179 57.436865 255.340516 -52.240815 -53.039314 0.892807 -3.420678 22.383696 -2.559495 -1.417178 9.958914 -1.349213 -1.417178 9.958914 -1.349213 -1.038011 7.472393 -0.986049 -8.907652 16.427953 -2.418972 -15.674529 -5.490391 -1.331924 -0.151365 9.613124 12.256517 30.338520 -22.549630 -23.813561 8.419745 -37.839020 7.003044 26.892572 -8.673008 -19.972045 -0.888809 9.937744 -11.449538 -17.532953 -22.597723 21.712116 -0.403132 -56.881331 19.114873 -44.379405 -24.935913 -16.204800 -16.225646 -22.406105 -5.171014 -10.965491 34.375223 -14.846028 5.223507 29.200404 6.423892 -0.673944 1.228114 -0.287439 19.152276 -30.579617 2.715443 89.293748 88.953680 85.033381 -29.533328 -6.443119 -21.544484 -0.133996 -0.165371 -0.058083
247.804295 57.442909 255.339160 -52.240624 -53.034329 0.883721 -3.420595 22.385536 -2.547609 -1.419652 9.960593 -1.348771 -1.419652 9.960593 -1.348771 -1.039864 7.473656 -0.985673 -8.901816 16.426324 -2.422131 -15.662672 -5.494167 -1.339614 -0.155746 9.594872 12.246971 30.350393 -22.546639 -23.812473 8.405772 -37.839380 7.016760 26.901093 -8.667332 -19.968823 -0.888091 9.922357 -11.452620 -17.529774 -22.593584 21.709418 -0.338788 -56.828441 19.045743 -44.419601 -24.968679 -16.142757 -16.232365 -22.410408 -5.159126 -10.961579 34.377569 -14.842715 5.214009 29.186681 6.414570 -0.672941 1.240440 -0.285979 19.150134 -30.583966 2.723776 89.155278 88.953955 84.897647 -29.535140 -6.443863 -21.544602 -0.134293 -0.165222 -0.058113
247.802098 57.450517 255.336214 -52.231358 -53.037344 0.867764 -3.428034 22.392971 -2.538588 -1.422917 9.961831 -1.350275 -1.422917 9.961831 -1.350275 -1.042279 7.474596 -0.986741 -8.895071 16.424555 -2.422078 -15.650280 -5.497912 -1.341669 -0.145979 9.579521 12.251083 30.366380 -22.540451 -23.821984 8.382809 -37.831614 7.026908 26.911821 -8.679523 -19.961401 -0.884352 9.906931 -11.451460 -17.524097 -22.589644 21.708971 -0.354701 -56.824358 19.012099 -44.415759 -24.911104 -16.090392 -16.235174 -22.400120 -5.149804 -10.957435 34.377931 -14.829583 5.182243 29.167065 6.389432 -0.659389 1.258322 -0.280648 19.138946 -30.581228 2.733716 88.905915 88.958765 84.654409 -29.530806 -6.443696 -21.552193 -0.135777 -0.166344 -0.056932
247.800270 57.458567 255.334647 -52.222344 -53.044655 0.859105 -3.435995 22.398447 -2.537968 -1.424751 9.962576 -1.350122 -1.424751 9.962576 -1.350122 -1.043651 7.475158 -0.986594 -8.887758 16.424754 -2.423947 -15.636034 -5.498268 -1.347682 -0.144846 9.573983 12.250462 30.371143 -22.533863 -23.820390 8.377479 -37.831282 7.033755 26.916933 -8.680619 -19.962217 -0.878141 9.899319 -11.455778 -17.525110 -22.585296 21.712980 -0.280591 -56.769348 18.930958 -44.451441 -24.943830 -16.024336 -16.239941 -22.389701 -5.149650 -10.956553 34.377294 -14.829809 5.186801 29.155654 6.394420 -0.663395 1.265850 -0.282599 19.135877 -30.571200 2.737166 88.617625 88.960549 84.372246 -29.530978 -6.441148 -21.553605 -0.137277 -0.167748 -0.058062
247.799789 57.466296 255.335358 -52.217643 -53.051290 0.861679 -3.448065 22.399323 -2.545116 -1.428169 9.962240 -1.350755 -1.428169 9.962240 -1.350755 -1.046198 7.474916 -0.987013 -8.879806 16.428084 -2.426450 -15.620192 -5.492947 -1.355423 -0.137688 9.573025 12.248099 30.378018 -22.525392 -23.820581 8.367705 -37.829518 7.043297 26.927739 -8.675757 -19.975217 -0.865815 9.898698 -11.464308 -17.521555 -22.580131 21.715241 -0.298739 -56.771629 18.894062 -44.449560 -24.898897 -15.980371 -16.237166 -22.384227 -5.159038 -10.968112 34.375954 -14.842608 5.211281 29.148230 6.412936 -0.675130 1.268224 -0.287328 19.140350 -30.557419 2.730971 88.215928 88.959753 83.975521 -29.532074 -6.438344 -21.555848 -0.137995 -0.168564 -0.057622
247.799656 57.470921 255.334030 -52.220198 -53.044829 0.857220 -3.441953 22.394500 -2.537082 -1.428158 9.962600 -1.349288 -1.428158 9.962600 -1.349288 -1.046214 7.475182 -0.985914 -8.877848 16.428538 -2.426660 -15.616458 -5.492269 -1.356538 -0.145341 9.561989 12.251951 30.379910 -22.516475 -23.818419 8.369101 -37.824900 7.046715 26.932014 -8.675435 -19.980403 -0.868053 9.894439 -11.463356 -17.517968 -22.583703 21.707978 -0.232913 -56.716281 18.819977 -44.488974 -24.927617 -15.917347 -16.241043 -22.388363 -5.150458 -10.968339 34.371788 -14.839918 5.215435 29.149698 6.411065 -0.679831 1.267692 -0.288763 19.142291 -30.564382 2.735592 88.071695 88.963632 83.834375 -29.529176 -6.436305 -21.556880 -0.139610 -0.168927 -0.058141
247.800436 57.477191 255.334850 -52.219017 -53.046761 0.856560 -3.441690 22.396800 -2.536221 -1.427968 9.963551 -1.348006 -1.427968 9.963551 -1.348006 -1.046090 7.475892 -0.984955 -8.874762 16.427751 -2.427732 -15.610397 -5.494060 -1.359507 -0.148836 9.556253 12.250357 30.391684 -22.512409 -23.816706 8.356927 -37.818056 7.046155 26.939204 -8.676921 -19.972999 -0.878429 9.890876 -11.464148 -17.514850 -22.585826 21.707586 -0.244905 -56.714787 18.786843 -44.494417 -24.876139 -15.871052 -16.243394 -22.389558 -5.153140 -10.960317 34.378157 -14.830651 5.204888 29.149736 6.399016 -0.674783 1.264664 -0.284917 19.140332 -30.557443 2.731316 87.768497 88.959156 83.535742 -29.527908 -6.438085 -21.563253 -0.140319 -0.168214 -0.057670
